<mxfile host="app.diagrams.net" modified="2024-01-03T07:35:42.939Z" agent="Mozilla/5.0 (Windows NT 10.0; Win64; x64; rv:121.0) Gecko/20100101 Firefox/121.0" etag="OTg1aTycQkfNfuhvp-2W" version="22.1.16" type="google">
  <diagram name="Page-1" id="_ecldzDDGxcc7-4HBDYa">
    <mxGraphModel grid="1" page="1" gridSize="10" guides="1" tooltips="1" connect="1" arrows="1" fold="1" pageScale="1" pageWidth="850" pageHeight="1100" math="0" shadow="0">
      <root>
        <mxCell id="0" />
        <mxCell id="1" parent="0" />
        <mxCell id="0sJJVckBPsr9syKNys9Y-1" value="User" style="swimlane;childLayout=stackLayout;horizontal=1;startSize=50;horizontalStack=0;rounded=1;fontSize=14;fontStyle=0;strokeWidth=2;resizeParent=0;resizeLast=1;shadow=0;dashed=0;align=center;arcSize=4;whiteSpace=wrap;html=1;" vertex="1" parent="1">
          <mxGeometry x="20" y="310" width="160" height="190" as="geometry" />
        </mxCell>
        <mxCell id="0sJJVckBPsr9syKNys9Y-2" value="&lt;div&gt;firstName (string)&lt;br&gt;&lt;/div&gt;&lt;div&gt;lastName (string)&lt;br&gt;&lt;/div&gt;&lt;div&gt;email (string)&lt;br&gt;&lt;/div&gt;&lt;div&gt;password (string)&lt;/div&gt;&lt;div&gt;phone (number)&lt;br&gt;&lt;/div&gt;&lt;div&gt;price (float)&lt;/div&gt;&lt;div&gt;&lt;br&gt;&lt;/div&gt;" style="align=left;strokeColor=none;fillColor=none;spacingLeft=4;fontSize=12;verticalAlign=top;resizable=0;rotatable=0;part=1;html=1;" vertex="1" parent="0sJJVckBPsr9syKNys9Y-1">
          <mxGeometry y="50" width="160" height="140" as="geometry" />
        </mxCell>
        <mxCell id="0sJJVckBPsr9syKNys9Y-3" value="Role" style="swimlane;childLayout=stackLayout;horizontal=1;startSize=50;horizontalStack=0;rounded=1;fontSize=14;fontStyle=0;strokeWidth=2;resizeParent=0;resizeLast=1;shadow=0;dashed=0;align=center;arcSize=4;whiteSpace=wrap;html=1;" vertex="1" parent="1">
          <mxGeometry x="490" y="310" width="160" height="120" as="geometry">
            <mxRectangle x="490" y="310" width="70" height="50" as="alternateBounds" />
          </mxGeometry>
        </mxCell>
        <mxCell id="woE1UTqXOVOx5wmc2ufv-5" value="&lt;div&gt;name (string)&lt;br&gt;&lt;/div&gt;&lt;div&gt;permissions (string)&lt;/div&gt;&lt;div&gt;&lt;br&gt;&lt;/div&gt;&lt;div&gt;&lt;br&gt;&lt;/div&gt;&lt;div&gt;&lt;br&gt;&lt;/div&gt;" style="align=left;strokeColor=none;fillColor=none;spacingLeft=4;fontSize=12;verticalAlign=top;resizable=0;rotatable=0;part=1;html=1;" vertex="1" parent="0sJJVckBPsr9syKNys9Y-3">
          <mxGeometry y="50" width="160" height="70" as="geometry" />
        </mxCell>
        <mxCell id="0sJJVckBPsr9syKNys9Y-5" value="" style="edgeStyle=entityRelationEdgeStyle;fontSize=12;html=1;endArrow=ERmandOne;startArrow=ERmandOne;rounded=0;entryX=-0.011;entryY=0.426;entryDx=0;entryDy=0;entryPerimeter=0;" edge="1" parent="1" source="0sJJVckBPsr9syKNys9Y-2" target="woE1UTqXOVOx5wmc2ufv-4">
          <mxGeometry width="100" height="100" relative="1" as="geometry">
            <mxPoint x="180" y="440" as="sourcePoint" />
            <mxPoint x="230.31999999999994" y="607.72" as="targetPoint" />
            <Array as="points">
              <mxPoint x="280" y="450" />
              <mxPoint x="260" y="480" />
              <mxPoint x="240" y="320" />
              <mxPoint x="300" y="400" />
            </Array>
          </mxGeometry>
        </mxCell>
        <mxCell id="woE1UTqXOVOx5wmc2ufv-3" value="UserRole" style="swimlane;childLayout=stackLayout;horizontal=1;startSize=50;horizontalStack=0;rounded=1;fontSize=14;fontStyle=0;strokeWidth=2;resizeParent=0;resizeLast=1;shadow=0;dashed=0;align=center;arcSize=4;whiteSpace=wrap;html=1;" vertex="1" parent="1">
          <mxGeometry x="250" y="440" width="160" height="120" as="geometry" />
        </mxCell>
        <mxCell id="woE1UTqXOVOx5wmc2ufv-4" value="&lt;div&gt;time (dateTime)&lt;/div&gt;&lt;div&gt;&lt;br&gt;&lt;/div&gt;" style="align=left;strokeColor=none;fillColor=none;spacingLeft=4;fontSize=12;verticalAlign=top;resizable=0;rotatable=0;part=1;html=1;" vertex="1" parent="woE1UTqXOVOx5wmc2ufv-3">
          <mxGeometry y="50" width="160" height="70" as="geometry" />
        </mxCell>
        <mxCell id="woE1UTqXOVOx5wmc2ufv-11" value="" style="edgeStyle=entityRelationEdgeStyle;fontSize=12;html=1;endArrow=ERoneToMany;rounded=0;entryX=1;entryY=0.5;entryDx=0;entryDy=0;" edge="1" parent="1" source="woE1UTqXOVOx5wmc2ufv-5" target="woE1UTqXOVOx5wmc2ufv-3">
          <mxGeometry width="100" height="100" relative="1" as="geometry">
            <mxPoint x="425" y="550" as="sourcePoint" />
            <mxPoint x="560" y="510" as="targetPoint" />
            <Array as="points">
              <mxPoint x="625" y="500" />
            </Array>
          </mxGeometry>
        </mxCell>
      </root>
    </mxGraphModel>
  </diagram>
</mxfile>
